<svg width="1200" height="600" viewBox="0 0 1200 600" xmlns="http://www.w3.org/2000/svg"><defs><pattern id="satori_pattern_id_0" x="0" y="0" width="1" height="1" patternUnits="objectBoundingBox"><linearGradient id="satori_biid_0" x1="0" y1="0" x2="0" y2="1"><stop offset="0%" stop-color="#dbf4ff"/><stop offset="100%" stop-color="#fff1f1"/></linearGradient><rect x="0" y="0" width="1200" height="600" fill="url(#satori_biid_0)"/></pattern></defs><mask id="satori_om-id"><rect x="0" y="0" width="1200" height="600" fill="#fff"/></mask><rect x="0" y="0" width="1200" height="600" fill="url(#satori_pattern_id_0)"/><clipPath id="satori_bct-id-0"><path d="M536.5 249.1L523.1 249.1L523.1 241.5L559.0 241.5L559.0 249.1L545.6 249.1L545.6 285.1L536.5 285.1L536.5 249.1ZM579.3 271.2L579.3 271.2L579.3 252.4L588.4 252.4L588.4 285.1L579.6 285.1L579.6 279.2L579.3 279.2Q578.2 282.1 575.6 283.8Q573.1 285.6 569.4 285.6L569.4 285.6Q566.1 285.6 563.6 284.1Q561.1 282.6 559.7 279.8Q558.3 277.1 558.3 273.2L558.3 273.2L558.3 252.4L567.4 252.4L567.4 271.6Q567.4 274.5 568.9 276.2Q570.5 277.9 573.0 277.9L573.0 277.9Q574.7 277.9 576.1 277.1Q577.5 276.4 578.4 274.9Q579.3 273.4 579.3 271.2ZM602.7 266.2L602.7 266.2L602.7 285.1L593.6 285.1L593.6 241.5L602.4 241.5L602.4 258.2L602.8 258.2Q603.9 255.3 606.4 253.6Q608.9 252.0 612.6 252.0L612.6 252.0Q616.0 252.0 618.5 253.5Q621.1 254.9 622.5 257.7Q623.9 260.5 623.9 264.3L623.9 264.3L623.9 285.1L614.8 285.1L614.8 265.9Q614.8 262.9 613.3 261.2Q611.8 259.5 609.0 259.5L609.0 259.5Q607.1 259.5 605.7 260.3Q604.3 261.1 603.5 262.6Q602.7 264.1 602.7 266.2ZM638.1 285.1L629.1 285.1L629.1 252.4L638.1 252.4L638.1 285.1ZM633.6 248.2L633.6 248.2Q631.6 248.2 630.2 246.8Q628.7 245.5 628.7 243.6L628.7 243.6Q628.7 241.7 630.2 240.3Q631.6 239.0 633.6 239.0L633.6 239.0Q635.6 239.0 637.1 240.3Q638.5 241.7 638.5 243.6L638.5 243.6Q638.5 245.5 637.1 246.8Q635.6 248.2 633.6 248.2ZM652.5 266.2L652.5 266.2L652.5 285.1L643.4 285.1L643.4 252.4L652.0 252.4L652.0 258.2L652.4 258.2Q653.5 255.3 656.1 253.6Q658.6 252.0 662.3 252.0L662.3 252.0Q665.7 252.0 668.2 253.5Q670.7 255.0 672.1 257.7Q673.5 260.5 673.5 264.3L673.5 264.3L673.5 285.1L664.5 285.1L664.5 265.9Q664.5 262.9 662.9 261.2Q661.4 259.5 658.7 259.5L658.7 259.5Q656.8 259.5 655.4 260.3Q654.0 261.1 653.3 262.6Q652.5 264.1 652.5 266.2Z "/></clipPath><defs><pattern id="satori_pattern_id-0_0" x="0" y="0" width="1" height="1" patternUnits="objectBoundingBox"><linearGradient id="satori_biid-0_0" x1="0" y1="0" x2="1" y2="0"><stop offset="0%" stop-color="rgb(0, 124, 240)"/><stop offset="100%" stop-color="rgb(0, 223, 216)"/></linearGradient><rect x="0" y="0" width="159" height="73" fill="url(#satori_biid-0_0)"/></pattern></defs><mask id="satori_om-id-0"><rect x="521" y="227" width="159" height="73" fill="#fff"/></mask><rect x="521" y="227" width="159" height="73" fill="url(#satori_pattern_id-0_0)" clip-path="url(#satori_bct-id-0)"/><clipPath id="satori_bct-id-1"><path d="M477.4 358.1L458.8 358.1L458.8 314.5L476.3 314.5Q481.1 314.5 484.3 315.9Q487.5 317.3 489.1 319.9Q490.8 322.4 490.8 325.7L490.8 325.7Q490.8 328.2 489.7 330.2Q488.7 332.1 486.9 333.3Q485.1 334.5 482.9 335.0L482.9 335.0L482.9 335.5Q485.4 335.6 487.5 336.9Q489.7 338.2 491.1 340.5Q492.5 342.8 492.5 346.1L492.5 346.1Q492.5 349.5 490.7 352.3Q489.0 355.0 485.7 356.5Q482.3 358.1 477.4 358.1L477.4 358.1ZM468.0 339.0L468.0 350.6L475.5 350.6Q479.4 350.6 481.2 349.1Q482.9 347.6 482.9 345.1L482.9 345.1Q482.9 343.3 482.1 342.0Q481.2 340.6 479.6 339.8Q478.0 339.0 475.8 339.0L475.8 339.0L468.0 339.0ZM468.0 321.9L468.0 332.7L474.9 332.7Q476.8 332.7 478.2 332.1Q479.7 331.4 480.6 330.2Q481.4 328.9 481.4 327.2L481.4 327.2Q481.4 324.8 479.8 323.4Q478.1 321.9 475.0 321.9L475.0 321.9L468.0 321.9ZM505.4 339.2L505.4 339.2L505.4 358.1L496.3 358.1L496.3 314.5L505.1 314.5L505.1 331.2L505.5 331.2Q506.6 328.3 509.1 326.6Q511.5 325.0 515.3 325.0L515.3 325.0Q518.7 325.0 521.2 326.5Q523.8 327.9 525.2 330.7Q526.6 333.5 526.6 337.3L526.6 337.3L526.6 358.1L517.5 358.1L517.5 338.9Q517.5 335.9 516.0 334.2Q514.4 332.5 511.7 332.5L511.7 332.5Q509.8 332.5 508.4 333.3Q507.0 334.1 506.2 335.6Q505.4 337.1 505.4 339.2ZM546.5 358.8L546.5 358.8Q541.6 358.8 537.9 356.6Q534.3 354.5 532.4 350.7Q530.4 346.9 530.4 341.9L530.4 341.9Q530.4 336.8 532.4 333.0Q534.3 329.2 537.9 327.1Q541.6 325.0 546.5 325.0L546.5 325.0Q551.5 325.0 555.1 327.1Q558.7 329.2 560.7 333.0Q562.6 336.8 562.6 341.9L562.6 341.9Q562.6 346.9 560.7 350.7Q558.7 354.5 555.1 356.6Q551.5 358.8 546.5 358.8ZM546.6 351.7L546.6 351.7Q548.8 351.7 550.3 350.4Q551.8 349.2 552.6 346.9Q553.4 344.7 553.4 341.8L553.4 341.8Q553.4 339.0 552.6 336.7Q551.8 334.5 550.3 333.2Q548.8 331.9 546.6 331.9L546.6 331.9Q544.3 331.9 542.7 333.2Q541.2 334.5 540.4 336.7Q539.6 339.0 539.6 341.8L539.6 341.8Q539.6 344.7 540.4 346.9Q541.2 349.2 542.7 350.4Q544.3 351.7 546.6 351.7ZM581.8 358.1L572.2 358.1L563.3 325.4L572.5 325.4L577.5 347.4L577.8 347.4L583.1 325.4L592.1 325.4L597.5 347.3L597.8 347.3L602.8 325.4L611.9 325.4L603.0 358.1L593.4 358.1L587.8 337.5L587.4 337.5L581.8 358.1ZM623.8 358.1L614.7 358.1L614.7 325.4L623.4 325.4L623.4 331.2L623.8 331.2Q624.8 328.3 627.2 326.6Q629.6 325.0 632.9 325.0L632.9 325.0Q636.3 325.0 638.6 326.6Q641.0 328.3 641.8 331.2L641.8 331.2L642.1 331.2Q643.1 328.4 645.8 326.7Q648.4 325.0 652.0 325.0L652.0 325.0Q656.6 325.0 659.4 327.9Q662.3 330.8 662.3 336.1L662.3 336.1L662.3 358.1L653.3 358.1L653.3 337.9Q653.3 335.2 651.8 333.8Q650.4 332.5 648.2 332.5L648.2 332.5Q645.7 332.5 644.3 334.0Q642.9 335.6 642.9 338.1L642.9 338.1L642.9 358.1L634.1 358.1L634.1 337.7Q634.1 335.3 632.8 333.9Q631.4 332.5 629.2 332.5L629.2 332.5Q627.6 332.5 626.4 333.2Q625.2 334.0 624.5 335.3Q623.8 336.7 623.8 338.5L623.8 338.5L623.8 358.1ZM676.5 358.1L667.5 358.1L667.5 325.4L676.5 325.4L676.5 358.1ZM672.0 321.2L672.0 321.2Q670.0 321.2 668.6 319.8Q667.1 318.5 667.1 316.6L667.1 316.6Q667.1 314.7 668.6 313.3Q670.0 312.0 672.0 312.0L672.0 312.0Q674.0 312.0 675.5 313.3Q676.9 314.7 676.9 316.6L676.9 316.6Q676.9 318.5 675.5 319.8Q674.0 321.2 672.0 321.2ZM696.6 358.8L696.6 358.8Q691.5 358.8 687.9 356.6Q684.3 354.5 682.4 350.7Q680.5 346.9 680.5 341.9L680.5 341.9Q680.5 336.9 682.4 333.1Q684.4 329.3 688.0 327.1Q691.6 325.0 696.5 325.0L696.5 325.0Q700.8 325.0 704.0 326.5Q707.2 328.1 709.1 330.9Q711.0 333.7 711.2 337.5L711.2 337.5L702.6 337.5Q702.3 335.0 700.7 333.5Q699.2 332.0 696.7 332.0L696.7 332.0Q694.6 332.0 693.0 333.2Q691.4 334.3 690.6 336.5Q689.7 338.7 689.7 341.8L689.7 341.8Q689.7 344.9 690.6 347.1Q691.4 349.3 693.0 350.4Q694.6 351.6 696.7 351.6L696.7 351.6Q698.2 351.6 699.5 350.9Q700.7 350.3 701.5 349.1Q702.4 347.9 702.6 346.1L702.6 346.1L711.2 346.1Q711.0 349.9 709.2 352.7Q707.3 355.6 704.1 357.2Q700.9 358.8 696.6 358.8ZM729.3 341.8L723.3 348.7L723.3 337.8L724.6 337.8L735.1 325.4L745.5 325.4L731.4 341.8L729.3 341.8ZM724.1 358.1L715.0 358.1L715.0 314.5L724.1 314.5L724.1 358.1ZM746.1 358.1L735.5 358.1L725.9 343.9L731.9 337.5L746.1 358.1Z "/></clipPath><defs><pattern id="satori_pattern_id-1_0" x="0" y="0" width="1" height="1" patternUnits="objectBoundingBox"><linearGradient id="satori_biid-1_0" x1="0" y1="0" x2="1" y2="0"><stop offset="0%" stop-color="rgb(121, 40, 202)"/><stop offset="100%" stop-color="rgb(255, 0, 128)"/></linearGradient><rect x="0" y="0" width="291" height="73" fill="url(#satori_biid-1_0)"/></pattern></defs><mask id="satori_om-id-1"><rect x="455" y="300" width="291" height="73" fill="#fff"/></mask><rect x="455" y="300" width="291" height="73" fill="url(#satori_pattern_id-1_0)" clip-path="url(#satori_bct-id-1)"/></svg>